<?xml version="1.0" encoding="UTF-8"?><svg id="a" xmlns="http://www.w3.org/2000/svg" viewBox="0 0 250 80"><defs><style>.b{font-family:Montserrat-Bold, Montserrat;font-size:11.87px;}.b,.c,.d{fill:#3f1068;}.d{font-family:Montserrat-Regular, Montserrat;font-size:5.61px;}</style></defs><g><text class="b" transform="translate(103.78 47.09)"><tspan x="0" y="0">Software</tspan></text><g><path class="c" d="M199.41,42.01c-.84,0-1.45,.51-1.58,1.33h3.15c-.13-.81-.74-1.33-1.57-1.33Z"/><path class="c" d="M171.89,40.35h-1.57v2.88h1.57c1.18,0,1.77-.53,1.77-1.44s-.59-1.45-1.77-1.45Z"/><path class="c" d="M206.9,42.01c-.84,0-1.45,.51-1.58,1.33h3.15c-.13-.81-.74-1.33-1.57-1.33Z"/><path class="c" d="M183.46,42.13c-.93,0-1.64,.66-1.64,1.77s.71,1.77,1.64,1.77,1.63-.66,1.63-1.77-.7-1.77-1.63-1.77Z"/><path class="c" d="M163.48,36.52l-1.5,12.69h63.21l1.5-12.69h-63.21Zm8.52,8.28h-1.67v2.29h-1.92v-8.31h3.6c2.22,0,3.61,1.15,3.61,3.02s-1.39,3-3.61,3Zm6.7,2.29h-1.85v-6.39h1.85v6.39Zm-.93-7.28c-.69,0-1.15-.45-1.15-1.03s.46-1.03,1.15-1.03,1.15,.43,1.15,1c0,.62-.46,1.07-1.15,1.07Zm5.69,7.37c-2.03,0-3.51-1.37-3.51-3.29s1.48-3.29,3.51-3.29,3.5,1.36,3.5,3.29-1.47,3.29-3.5,3.29Zm11.27-.09h-1.85v-3.37c0-1.03-.47-1.51-1.29-1.51-.89,0-1.53,.55-1.53,1.72v3.16h-1.85v-6.39h1.77v.75c.5-.55,1.25-.84,2.11-.84,1.51,0,2.65,.88,2.65,2.83v3.66Zm7.97-2.67h-4.83c.18,.8,.85,1.28,1.83,1.28,.68,0,1.16-.2,1.6-.62l.99,1.07c-.59,.68-1.48,1.03-2.64,1.03-2.21,0-3.64-1.39-3.64-3.29s1.46-3.29,3.41-3.29,3.32,1.26,3.32,3.31c0,.14-.02,.34-.04,.5Zm7.49,0h-4.83c.18,.8,.85,1.28,1.83,1.28,.68,0,1.16-.2,1.6-.62l.99,1.07c-.59,.68-1.48,1.03-2.64,1.03-2.21,0-3.64-1.39-3.64-3.29s1.46-3.29,3.41-3.29,3.32,1.26,3.32,3.31c0,.14-.02,.34-.04,.5Zm5.24-2.1c-.15-.01-.27-.02-.42-.02-1.02,0-1.7,.56-1.7,1.78v3.02h-1.85v-6.39h1.77v.84c.45-.62,1.21-.94,2.2-.94v1.71Zm3.28,4.87c-1.08,0-2.17-.3-2.77-.69l.62-1.33c.57,.37,1.44,.62,2.22,.62,.85,0,1.18-.23,1.18-.58,0-1.04-3.86,.02-3.86-2.53,0-1.21,1.09-2.07,2.96-2.07,.88,0,1.85,.2,2.46,.56l-.62,1.32c-.63-.36-1.26-.47-1.84-.47-.83,0-1.19,.26-1.19,.59,0,1.09,3.86,.04,3.86,2.55,0,1.19-1.1,2.03-3.02,2.03Z"/></g><text class="d" transform="translate(107.81 55.4)"><tspan x="0" y="0">High Quality Software at Affordable Price</tspan></text></g><g><path class="c" d="M73.44,59.54l8.41-4.68c-.54,1.7,.53,3.03,.9,4.54,1.16,4.8,.03,9-3.69,12.25-3.72,3.25-8.06,3.91-12.61,1.9-4-1.77-7.96-3.62-12.28-4.46-1.55-.3-3.16-.4-4.74-.34-2.4,.1-3.38,1.23-3.43,3.62,0,.25-.06,.5-.32,.83-.2-.32-.42-.62-.61-.95-.85-1.48-1.98-2.64-3.58-3.32-1.57-.67-2.9-.26-4.23,.94-.24-.54-.49-.97-.63-1.42-1.94-6.28-.84-11.98,3.45-16.98,.65-.76,.87-1.37,.32-2.21-.07-.11-.1-.26-.18-.36-.4-.56-.36-1.49-1.41-1.5-1.2,0-2.24,.25-2.89,1.33-.78,1.3-.91,2.74-.71,4.22,.07,.53,.18,1.05,.27,1.58-.13,.01-.22,.05-.25,.02-2.7-2.65-4.73-5.65-4.93-9.59-.1-2.08,.73-3.76,2.29-5.09,2.25-1.94,4.97-2.94,7.82-3.42,2.9-.49,5.84-.66,8.77-.97,.65-.07,1.02,.11,.96,.88-.46,6.31,1.17,12.07,4.62,17.33,.07,.11,.1,.24,.08,.47-3.42-2.22-6.74-4.62-10.7-5.77l-.17,.23c.25,.3,.49,.61,.75,.89,2.4,2.53,5.2,4.54,8.29,6.15,.66,.35,.99,.79,1.18,1.5,1.15,4.29,4.8,6.97,9.27,6.85,4.18-.11,7.76-3.06,8.62-7.29,.24-1.17,.17-2.43,.03-3.63-.09-.75,.09-1.09,.7-1.45,2.62-1.5,5.23-3,7.8-4.58,.86-.52,1.65-1.2,2.34-1.93,.71-.75,.52-1.26-.23-1.98-.57-.55-.97-1.27-1.53-2.04,2.19-.24,4.1,1.42,3.95,3.26-.2,2.36-.52,4.71-.84,7.06-.04,.3-.36,.66-.64,.82-2.98,1.74-5.96,3.49-8.99,5.15-.79,.43-1.3,.91-1.22,2.12Zm7.59,1.29l-.2-.17c-1.28,.81-2.51,1.69-3.84,2.41-3.82,2.06-7.96,3.05-12.25,3.34-7.19,.49-14.12-.52-20.64-3.73-1.07-.53-1.29-1.09-.97-2.52,4.5,2.61,9.37,3.89,14.62,4.39-.77-.6-1.48-1.02-2.03-1.6-.63-.65-1.35-.93-2.21-1.1-3.27-.64-6.41-1.69-9.36-3.28-1.38-.75-1.4-.82-.84-2.42,1.56,.72,3.09,1.49,4.68,2.13,1.6,.64,3.23,1.25,5.03,1.4-.17-1.36-.7-2.07-2.02-2.41-2.83-.72-5.5-1.91-7.94-3.54-.16-.11-.35-.16-.53-.24-1.99,4.75-.53,12.85,2.76,15.24l.66-.7-1.74-2.8c.43-.07,.65,0,.86,.09,2.05,.9,4.1,1.75,6.44,1.55,.76-.06,1.55,.14,2.31,.29,3,.6,5.93,1.73,9.08,1.28,2.08-.3,4.18-.45,6.23-.86,3.52-.71,6.86-1.91,9.64-4.29,.84-.72,1.5-1.64,2.25-2.47Zm-17.2,9.4c1.96,1.65,4.09,1.64,6.31,.79,.95-.36,1.93-.62,2.87-1.01,2.43-1,4.69-2.29,6.52-4.22,.57-.6,1.03-1.31,1.54-1.96-5.02,4.25-10.91,5.94-17.24,6.4Zm-27.78-31.16l-.26,.16c0,.1-.06,.21-.02,.28,1.21,2.42,2.43,4.84,3.66,7.24,.11,.21,.37,.44,.6,.49,.87,.17,1.76,.28,2.89,.44l-6.87-8.62Zm44.04,19.42c-2.25,.96-4.45,2.12-6.79,2.84-1.58,.49-2.67,1.42-3.93,2.64,4.2-.97,7.86-2.48,10.72-5.48Zm.35,8.88c-2.68,2.38-5.75,4.09-9.11,5.32,4.09,.02,7.05-1.89,9.11-5.32Zm-42.63-2.35c.47-.31,.87-.61,1.3-.87,1.32-.8,1.41-1.09,.71-2.61-1.63,.54-2.82,1.99-2.01,3.48Zm43.35-13.38c1.48-.56,2.07-1.97,1.65-3.8-1.84,.89-2.08,1.44-1.65,3.8Zm-3.56,2.14c1.63-.47,2.19-1.78,1.54-3.59-1.63,.56-1.98,1.38-1.54,3.59Zm-1.84-1.55c-1.85,.47-2.17,1.25-1.45,3.4,1.56-.45,1.77-.94,1.45-3.4Zm-36,5.51c-1.46,.43-2.12,1.43-1.85,2.79,1.95-.78,2.23-1.2,1.85-2.79Zm1.91,9.19c-.18-.4-.33-.85-.6-1.23-.13-.18-.55-.37-.7-.29-.75,.4-1.46,.89-2.19,1.35l.15,.16h3.33Zm-1.04-12.74l-.35-.18-.99,1.72,.35,.2,.99-1.74Z"/><path class="c" d="M70.96,52.54c-2.11-.94-4.07-2.06-6.18-2.68-2.81-.82-5.74-1.23-8.61-1.87-.43-.1-1.01-.39-1.15-.73-1.37-3.45-1.93-7.03-1.61-10.74,.07-.79,.38-1.06,1.15-.99,2.43,.23,4.86,.4,7.28,.67,.43,.05,.91,.42,1.19,.78,.57,.74,1.01,1.58,1.46,2.29l2.74-8.11c-.77,.42-1.73,.99-2.74,1.46-.5,.23-1.09,.4-1.63,.37-2.83-.18-5.66-.43-8.76-.68,.45-1.26,.9-2.4,1.27-3.57,.41-1.26,1.22-2.02,2.48-2.44,.99-.33,1.92-.83,2.91-1.28-1.31-.57-7.48-.49-10.43,.15,.58,.45,1.05,.87,1.57,1.22,.5,.35,.59,.69,.35,1.28-.49,1.19-.92,2.4-1.26,3.64-.2,.71-.54,.95-1.26,1-2.59,.2-5.2,.37-7.77,.75-1.73,.26-2.21,.78-2.74,2.03-1.32-.94-2.02-2.79-1.66-4.37,.4-1.73,1.41-3.06,2.78-4.13,2.47-1.93,5.36-2.95,8.38-3.41,3.37-.51,6.79-.74,10.19-1.01,.78-.06,1.23-.19,1.14-1.07-.05-.49,.09-.9,.72-.81,.53,.08,1.35-.1,1.32,.73-.04,1.16,.64,1.17,1.46,1.27,5.17,.6,10.34,1.23,15.51,1.87,.39,.05,.76,.17,1.19,.38-5.35,2.5-9.19,6.36-11.03,11.98-1.84,5.58-1.14,10.94,1.74,16.05Z"/><path class="c" d="M44.89,23.12c.32-.98,.52-1.76,.82-2.49,2.53-6.17,7.03-10.16,13.47-11.91,.73-.2,1.09-.43,1.07-1.26-.02-.85-.53-.86-1.12-.97-1.35-.26-2.53-.08-3.55,.94-.78,.77-1.74,1.02-2.8,.52-1.04-.49-2.11-.39-3.17-.06-.31,.09-.62,.18-.98,.16,1.22-1.25,2.54-2.34,4.42-2.1,.99,.13,1.66-.1,2.01-1.06,.4-1.11,1.26-1.7,2.35-1.84,1.03-.13,2.08-.1,3.12-.12,1.11-.02,1.45,.61,1.41,1.63-.05,1.14-.01,2.29-.01,3.54,2.5,0,4.89-.02,7.3,.81-.7,2.11-1.41,4.22-.79,6.38,.59,2.06,1.44,4.05,2.21,6.19-.37-.1-.73-.22-1.1-.31-2.98-.76-5.92-1.86-8.94-2.19-5.46-.6-10.77,.07-15.16,3.93-.07,.06-.18,.08-.55,.23Z"/><path class="c" d="M82.4,26.06c-4.04,5.72-4.36,11.52-.96,17.78-3.71-1.37-7.26-1.49-10.83-.64-1.26-5.4,5.82-15.76,11.79-17.14Z"/><path class="c" d="M37.44,73.69c.86-1.81,2.82-2.68,4.71-2.28,1.92,.41,2.94,1.89,3.97,3.42,1.19-2.79,2.62-3.6,5.69-3.42,3.22,.19,6.25,1.15,9.22,2.31,1.39,.54,2.74,1.17,4.1,1.77,.28,.12,.54,.31,.81,.46l-.1,.24c-.77-.2-1.54-.4-2.31-.61-3.61-.97-7.26-1.69-11.03-1.34-.93,.09-1.87,.33-2.76,.62-1.24,.41-2.19,1.2-2.63,2.31-1.39-1.13-2.67-2.41-4.18-3.33-1.64-1.01-3.54-.53-5.48-.16Z"/><path class="c" d="M60.15,50.27c1.64-.18,1.99,.11,2.01,1.63,.03,2.84,.08,5.68,.1,8.53,0,.43,.01,.93-.19,1.28-.17,.28-.66,.54-.98,.51-.37-.04-.73-.37-1.04-.64-.12-.1-.13-.38-.12-.58,.04-3.45,.08-6.9,.13-10.35,0-.13,.07-.25,.1-.37Z"/><path class="c" d="M69.97,57.67c-.25,1.47-.8,1.99-2.06,1.94-1.18-.04-2.36-.15-3.54-.18-.79-.02-.69-.57-.7-1.07,0-.46,0-.92,.65-.89,1.88,.07,3.75,.13,5.65,.2Z"/><path class="c" d="M67.68,55.92c-.74,0-1.49,0-2.23,0-.92,0-.7-.7-.74-1.25-.04-.6,.27-.75,.81-.72,1.35,.06,2.7,.13,4.05,.13,.94,0,.98,.58,.97,1.28,0,.79-.53,.74-1.04,.71-.61-.03-1.21-.08-1.82-.11v-.04Z"/><path class="c" d="M74.98,46.42c0,.54,0,1.08,0,1.62,0,.7-.43,.97-1.04,.96-.62,0-1.03-.32-1-1.01,.04-1.05,.1-2.09,.14-3.14,.03-.79,.59-.77,1.15-.8,.62-.03,.73,.36,.73,.85,0,.51,0,1.01,0,1.52h.03Z"/><path class="c" d="M67.63,40.3l-14.21,.17c-.05-.57-.08-1.19-.08-1.86,0-.91,.06-1.74,.15-2.48,.03-.1,.07-.25,.09-.43,.14-1.1-.38-2.41-1.35-3.03-.54-.35-1.2-.36-2.51-.37-1.16,0-2.13,.11-2.8,.21,.15-2.91,.3-5.82,.44-8.73h20.26v16.52Z"/></g></svg>